<?xml version="1.0" encoding="utf-8"?>
<!-- Generator: Adobe Illustrator 24.1.3, SVG Export Plug-In . SVG Version: 6.00 Build 0)  -->
<svg version="1.1" id="Layer_1" xmlns="http://www.w3.org/2000/svg" xmlns:xlink="http://www.w3.org/1999/xlink" x="0px" y="0px"
	 viewBox="0 0 55 55" style="enable-background:new 0 0 55 55;" xml:space="preserve">
<style type="text/css">
	.st0{fill:#3D92D0;}
</style>
<g>
	<path class="st0" d="M9.1,4.5H5.2c-0.9,0-1.7,0.8-1.7,1.7V10c0,0.9,0.8,1.7,1.7,1.7h3.9c0.9,0,1.7-0.8,1.7-1.7V6.2
		C10.8,5.2,10,4.5,9.1,4.5z M9.3,10c0,0.1-0.1,0.2-0.2,0.2H5.2c-0.1,0-0.2-0.1-0.2-0.2V6.2c0-0.1,0.1-0.2,0.2-0.2h3.9
		c0.1,0,0.2,0.1,0.2,0.2V10z"/>
	<path class="st0" d="M49.8,4.5h-3.9c-0.9,0-1.7,0.8-1.7,1.7V10c0,0.9,0.8,1.7,1.7,1.7h3.9c0.9,0,1.7-0.8,1.7-1.7V6.2
		C51.5,5.2,50.7,4.5,49.8,4.5z M50,10c0,0.1-0.1,0.2-0.2,0.2h-3.9c-0.1,0-0.2-0.1-0.2-0.2V6.2c0-0.1,0.1-0.2,0.2-0.2h3.9
		C49.9,5.9,50,6,50,6.2V10z"/>
	<path class="st0" d="M9.1,14.2H5.2c-0.9,0-1.7,0.8-1.7,1.7v3.9c0,0.9,0.8,1.7,1.7,1.7h3.9c0.9,0,1.7-0.8,1.7-1.7v-3.9
		C10.8,14.9,10,14.2,9.1,14.2z M9.3,19.7c0,0.1-0.1,0.2-0.2,0.2H5.2c-0.1,0-0.2-0.1-0.2-0.2v-3.9c0-0.1,0.1-0.2,0.2-0.2h3.9
		c0.1,0,0.2,0.1,0.2,0.2V19.7z"/>
	<path class="st0" d="M49.8,14.2h-3.9c-0.9,0-1.7,0.8-1.7,1.7v3.9c0,0.9,0.8,1.7,1.7,1.7h1c0.4,0,0.7-0.3,0.7-0.7
		c0-0.4-0.3-0.7-0.7-0.7h-1c-0.1,0-0.2-0.1-0.2-0.2v-3.9c0-0.1,0.1-0.2,0.2-0.2h3.9c0.1,0,0.2,0.1,0.2,0.2v3.9
		c0,0.1-0.1,0.2-0.2,0.2c-0.4,0-0.7,0.3-0.7,0.7c0,0.4,0.3,0.7,0.7,0.7c0.9,0,1.7-0.8,1.7-1.7v-3.9C51.5,14.9,50.7,14.2,49.8,14.2z"
		/>
	<path class="st0" d="M9.1,23.9H5.2c-0.9,0-1.7,0.8-1.7,1.7v1c0,0.4,0.3,0.7,0.7,0.7c0.4,0,0.7-0.3,0.7-0.7v-1
		c0-0.1,0.1-0.2,0.2-0.2h3.9c0.1,0,0.2,0.1,0.2,0.2v3.9c0,0.1-0.1,0.2-0.2,0.2H5.2c-0.1,0-0.2-0.1-0.2-0.2c0-0.4-0.3-0.7-0.7-0.7
		c-0.4,0-0.7,0.3-0.7,0.7c0,0.9,0.8,1.7,1.7,1.7h3.9c0.9,0,1.7-0.8,1.7-1.7v-3.9C10.8,24.6,10,23.9,9.1,23.9z"/>
	<path class="st0" d="M39.1,15.1H15.9c-0.9,0-1.7,0.8-1.7,1.7v21.3c0,0.9,0.8,1.7,1.7,1.7h5.1c0.4,0,0.7-0.3,0.7-0.7
		c0-0.4-0.3-0.7-0.7-0.7h-5.1c-0.1,0-0.2-0.1-0.2-0.2V16.8c0-0.1,0.1-0.2,0.2-0.2h23.3c0.1,0,0.2,0.1,0.2,0.2v21.3
		c0,0.1-0.1,0.2-0.2,0.2H24.8c-0.4,0-0.7,0.3-0.7,0.7c0,0.4,0.3,0.7,0.7,0.7h14.3c0.9,0,1.7-0.8,1.7-1.7V16.8
		C40.8,15.9,40.1,15.1,39.1,15.1z"/>
	<path class="st0" d="M15.9,11.7h12.1c0.4,0,0.7-0.3,0.7-0.7c0-0.4-0.3-0.7-0.7-0.7H15.9c-0.1,0-0.2-0.1-0.2-0.2V5.2
		c0-0.4-0.3-0.7-0.7-0.7c-0.4,0-0.7,0.3-0.7,0.7V10C14.2,11,14.9,11.7,15.9,11.7z"/>
	<path class="st0" d="M40.1,4.5c-0.4,0-0.7,0.3-0.7,0.7V10c0,0.1-0.1,0.2-0.2,0.2h-7.3c-0.4,0-0.7,0.3-0.7,0.7
		c0,0.4,0.3,0.7,0.7,0.7h7.3c0.9,0,1.7-0.8,1.7-1.7V5.2C40.8,4.8,40.5,4.5,40.1,4.5z"/>
	<path class="st0" d="M39.1,43.2h-3.1c-0.4,0-0.7,0.3-0.7,0.7c0,0.4,0.3,0.7,0.7,0.7h3.1c0.1,0,0.2,0.1,0.2,0.2v4.8
		c0,0.4,0.3,0.7,0.7,0.7c0.4,0,0.7-0.3,0.7-0.7v-4.8C40.8,44,40.1,43.2,39.1,43.2z"/>
	<path class="st0" d="M32.2,43.2H15.9c-0.9,0-1.7,0.8-1.7,1.7v4.8c0,0.4,0.3,0.7,0.7,0.7c0.4,0,0.7-0.3,0.7-0.7v-4.8
		c0-0.1,0.1-0.2,0.2-0.2h16.3c0.4,0,0.7-0.3,0.7-0.7C32.9,43.6,32.6,43.2,32.2,43.2z"/>
	<path class="st0" d="M49.8,23.9h-3.9c-0.9,0-1.7,0.8-1.7,1.7v3.9c0,0.9,0.8,1.7,1.7,1.7h3.9c0.9,0,1.7-0.8,1.7-1.7v-3.9
		C51.5,24.6,50.7,23.9,49.8,23.9z M50,29.4c0,0.1-0.1,0.2-0.2,0.2h-3.9c-0.1,0-0.2-0.1-0.2-0.2v-3.9c0-0.1,0.1-0.2,0.2-0.2h3.9
		c0.1,0,0.2,0.1,0.2,0.2V29.4z"/>
	<path class="st0" d="M9.1,33.6H5.2c-0.9,0-1.7,0.8-1.7,1.7v3.9c0,0.9,0.8,1.7,1.7,1.7h3.9c0.9,0,1.7-0.8,1.7-1.7v-3.9
		C10.8,34.3,10,33.6,9.1,33.6z M9.3,39.1c0,0.1-0.1,0.2-0.2,0.2H5.2c-0.1,0-0.2-0.1-0.2-0.2v-3.9c0-0.1,0.1-0.2,0.2-0.2h3.9
		c0.1,0,0.2,0.1,0.2,0.2V39.1z"/>
	<path class="st0" d="M49.8,33.6h-1.9c-0.4,0-0.7,0.3-0.7,0.7c0,0.4,0.3,0.7,0.7,0.7h1.9c0.1,0,0.2,0.1,0.2,0.2v3.9
		c0,0.1-0.1,0.2-0.2,0.2h-3.9c-0.1,0-0.2-0.1-0.2-0.2v-1.9c0-0.4-0.3-0.7-0.7-0.7c-0.4,0-0.7,0.3-0.7,0.7v1.9c0,0.9,0.8,1.7,1.7,1.7
		h3.9c0.9,0,1.7-0.8,1.7-1.7v-3.9C51.5,34.3,50.7,33.6,49.8,33.6z"/>
	<path class="st0" d="M9.1,43.2H5.2c-0.9,0-1.7,0.8-1.7,1.7v3.9c0,0.9,0.8,1.7,1.7,1.7h3.9c0.9,0,1.7-0.8,1.7-1.7v-3.9
		C10.8,44,10,43.2,9.1,43.2z M9.3,48.8c0,0.1-0.1,0.2-0.2,0.2H5.2c-0.1,0-0.2-0.1-0.2-0.2v-3.9c0-0.1,0.1-0.2,0.2-0.2h3.9
		c0.1,0,0.2,0.1,0.2,0.2V48.8z"/>
	<path class="st0" d="M49.8,43.2h-3.9c-0.9,0-1.7,0.8-1.7,1.7v3.9c0,0.9,0.8,1.7,1.7,1.7h3.9c0.9,0,1.7-0.8,1.7-1.7v-3.9
		C51.5,44,50.7,43.2,49.8,43.2z M50,48.8c0,0.1-0.1,0.2-0.2,0.2h-3.9c-0.1,0-0.2-0.1-0.2-0.2v-3.9c0-0.1,0.1-0.2,0.2-0.2h3.9
		c0.1,0,0.2,0.1,0.2,0.2V48.8z"/>
	<path class="st0" d="M29.4,26.2c0.3,0.2,0.8,0.2,1-0.1c0.2-0.3,0.2-0.8-0.1-1L25,21.1c-0.2-0.2-0.5-0.2-0.8-0.1
		c-0.2,0.1-0.4,0.4-0.4,0.7v11.6c0,0.3,0.2,0.5,0.4,0.7c0.1,0.1,0.2,0.1,0.3,0.1c0.2,0,0.3,0,0.4-0.1l7.8-5.8c0.3-0.2,0.4-0.7,0.1-1
		c-0.2-0.3-0.7-0.4-1-0.1l-6.6,4.9v-8.7L29.4,26.2z"/>
</g>
</svg>
