<?xml version="1.0" encoding="utf-8"?>
<!-- Generator: Adobe Illustrator 24.1.3, SVG Export Plug-In . SVG Version: 6.00 Build 0)  -->
<svg version="1.1" id="Layer_1" xmlns="http://www.w3.org/2000/svg" xmlns:xlink="http://www.w3.org/1999/xlink" x="0px" y="0px"
	 viewBox="0 0 55 55" style="enable-background:new 0 0 55 55;" xml:space="preserve">
<style type="text/css">
	.st0{fill:#3D92D0;}
</style>
<g>
	<path class="st0" d="M6.3,12.1c0.4,0,0.7-0.3,0.7-0.7V9.5V4.9h21.5c0.4,0,0.7-0.3,0.7-0.7c0-0.4-0.3-0.7-0.7-0.7H6.3
		c-0.4,0-0.7,0.3-0.7,0.7v5.3v1.9C5.6,11.8,5.9,12.1,6.3,12.1z"/>
	<path class="st0" d="M6.3,20.8c0.4,0,0.7-0.3,0.7-0.7v-3.8c0-0.4-0.3-0.7-0.7-0.7c-0.4,0-0.7,0.3-0.7,0.7v3.8
		C5.6,20.5,5.9,20.8,6.3,20.8z"/>
	<path class="st0" d="M29.5,50H7.1V26.8v-1.9c0-0.4-0.3-0.7-0.7-0.7c-0.4,0-0.7,0.3-0.7,0.7v1.9v24c0,0.4,0.3,0.7,0.7,0.7h23.2
		c0.4,0,0.7-0.3,0.7-0.7C30.2,50.4,29.9,50,29.5,50z"/>
	<path class="st0" d="M41.2,31.2c-0.4,0-0.7,0.3-0.7,0.7V50h-6.1c-0.4,0-0.7,0.3-0.7,0.7c0,0.4,0.3,0.7,0.7,0.7h6.9
		c0.4,0,0.7-0.3,0.7-0.7V31.9C41.9,31.5,41.6,31.2,41.2,31.2z"/>
	<path class="st0" d="M52.6,10.3c-1-1-2.6-1-3.6,0L47.4,12l-0.3-0.3c-0.3-0.3-0.8-0.3-1,0l-4.2,4.2V13c0,0,0,0,0,0
		c0-0.1,0-0.1,0-0.2c0,0,0,0,0-0.1c0-0.1-0.1-0.2-0.1-0.2l-8.8-8.8c-0.1-0.1-0.1-0.1-0.2-0.1c0,0,0,0-0.1,0c-0.1,0-0.1,0-0.2,0
		c0,0,0,0-0.1,0c-0.1,0-0.2,0-0.2,0c0,0,0,0,0,0c0,0,0,0,0,0c-0.1,0-0.2,0.1-0.2,0.1c0,0,0,0,0,0c0,0,0,0,0,0c0,0-0.1,0.1-0.1,0.2
		c0,0,0,0,0,0.1c0,0.1,0,0.2,0,0.2V13c0,0.4,0.3,0.7,0.7,0.7h8.1v3.6l-2.6,2.6c-0.1,0.1-0.2,0.3-0.2,0.5c0,0.2,0.1,0.4,0.2,0.5
		l0.1,0.1L36,23.1L35.9,23c-0.1-0.1-0.3-0.2-0.5-0.2c-0.2,0-0.4,0.1-0.5,0.2L22.1,35.7c-0.1,0.1-0.1,0.1-0.1,0.2L18.7,43h-5.6
		c-0.4,0-0.7,0.3-0.7,0.7c0,0.4,0.3,0.7,0.7,0.7h6c0.1,0,0.2,0,0.3-0.1c0,0,0,0,0,0l7.6-3.5c0.1,0,0.2-0.1,0.2-0.1l4.7-4.7
		c0.3-0.3,0.3-0.7,0-1c-0.3-0.3-0.7-0.3-1,0l-4.2,4.2l-3.1-3.1l11.7-11.7l3.1,3.1l-4.6,4.6c-0.3,0.3-0.3,0.7,0,1
		c0.3,0.3,0.7,0.3,1,0l5.1-5.1c0.3-0.3,0.3-0.7,0-1L39.8,27l2.1-2.1l0.1,0.1c0.1,0.1,0.3,0.2,0.5,0.2c0.2,0,0.4-0.1,0.5-0.2l8.2-8.2
		c0.3-0.3,0.3-0.7,0-1L51,15.6l1.6-1.6C53.6,12.9,53.6,11.3,52.6,10.3z M33.1,12.3V6l3.5,3.5l2.9,2.9H33.1z M25.5,40.1l-4.8,2.2
		l2.2-4.8L25.5,40.1z M38.8,26l-0.3-0.3L37,24.2l2.1-2.1l1.8,1.8L38.8,26z M42.5,23.5l-3.1-3.1l7.2-7.2l3.1,3.1L42.5,23.5z
		 M51.6,12.9L50,14.6L48.4,13l1.6-1.6c0.4-0.4,1.1-0.4,1.5,0C52,11.8,52,12.5,51.6,12.9z"/>
	<path class="st0" d="M13.2,13.8h12.4c0.4,0,0.7-0.3,0.7-0.7c0-0.4-0.3-0.7-0.7-0.7H13.2c-0.4,0-0.7,0.3-0.7,0.7
		C12.4,13.4,12.8,13.8,13.2,13.8z"/>
	<path class="st0" d="M35.1,19.2c0-0.4-0.3-0.7-0.7-0.7h-9.1c-0.4,0-0.7,0.3-0.7,0.7c0,0.4,0.3,0.7,0.7,0.7h9.1
		C34.7,19.9,35.1,19.6,35.1,19.2z"/>
	<path class="st0" d="M13.2,19.9h8.2c0.4,0,0.7-0.3,0.7-0.7c0-0.4-0.3-0.7-0.7-0.7h-8.2c-0.4,0-0.7,0.3-0.7,0.7
		C12.4,19.6,12.8,19.9,13.2,19.9z"/>
	<path class="st0" d="M29.2,25.3c0-0.4-0.3-0.7-0.7-0.7h-7.9c-0.4,0-0.7,0.3-0.7,0.7s0.3,0.7,0.7,0.7h7.9
		C28.9,26.1,29.2,25.7,29.2,25.3z"/>
	<path class="st0" d="M13.2,26.1h3.6c0.4,0,0.7-0.3,0.7-0.7s-0.3-0.7-0.7-0.7h-3.6c-0.4,0-0.7,0.3-0.7,0.7S12.8,26.1,13.2,26.1z"/>
	<path class="st0" d="M23.4,31.5c0-0.4-0.3-0.7-0.7-0.7h-9.5c-0.4,0-0.7,0.3-0.7,0.7c0,0.4,0.3,0.7,0.7,0.7h9.5
		C23.1,32.2,23.4,31.9,23.4,31.5z"/>
	<path class="st0" d="M13.2,36.9c-0.4,0-0.7,0.3-0.7,0.7c0,0.4,0.3,0.7,0.7,0.7h5.4c0.4,0,0.7-0.3,0.7-0.7c0-0.4-0.3-0.7-0.7-0.7
		H13.2z"/>
</g>
</svg>
