<?xml version="1.0" encoding="utf-8"?>
<!-- Generator: Adobe Illustrator 24.1.3, SVG Export Plug-In . SVG Version: 6.00 Build 0)  -->
<svg version="1.1" id="Layer_1" xmlns="http://www.w3.org/2000/svg" xmlns:xlink="http://www.w3.org/1999/xlink" x="0px" y="0px"
	 viewBox="0 0 55 55" style="enable-background:new 0 0 55 55;" xml:space="preserve">
<style type="text/css">
	.st0{fill:#3D92D0;}
</style>
<g>
	<path class="st0" d="M7.8,17.4C7.8,17.4,7.8,17.4,7.8,17.4c0,0.1,0.1,0.1,0.1,0.2c0,0,0,0,0,0.1c0,0,0,0,0,0l8.4,8.4
		c0.1,0.1,0.3,0.2,0.5,0.2c0.2,0,0.4-0.1,0.5-0.2c0.3-0.3,0.3-0.7,0-1l-7.6-7.6c0,0,0.1,0,0.1-0.1c0.4-0.2,0.8-0.3,1.1-0.5
		c0,0,0,0,0,0c0.4-0.2,0.7-0.4,1.1-0.6c0.1,0,0.1-0.1,0.2-0.1c0.3-0.2,0.6-0.5,1-0.7c0.1,0,0.1-0.1,0.2-0.2c0.1-0.1,0.3-0.2,0.4-0.3
		l7,7c0.1,0.1,0.3,0.2,0.5,0.2c0.2,0,0.4-0.1,0.5-0.2c0.3-0.3,0.3-0.7,0-1l-7-7c0.1-0.1,0.2-0.3,0.3-0.4c0.1-0.1,0.1-0.1,0.2-0.2
		c0.2-0.3,0.5-0.6,0.7-1c0-0.1,0.1-0.1,0.1-0.2c0.2-0.3,0.4-0.7,0.6-1.1c0,0,0,0,0,0c0.2-0.4,0.4-0.8,0.5-1.1c0,0,0-0.1,0.1-0.1
		l8.2,8.2c0.3,0.3,0.7,0.3,1,0c0.3-0.3,0.3-0.7,0-1l-9-9c0,0,0,0,0,0c0,0,0,0,0,0c-0.1,0-0.1-0.1-0.2-0.1c0,0,0,0,0,0l-13-4.3
		c-0.3-0.1-0.5,0-0.7,0.2C3.5,3.9,3.4,4.2,3.5,4.4L7.8,17.4z M16.2,9c-0.1,0.1-0.1,0.3-0.2,0.4c-0.1,0.2-0.2,0.4-0.2,0.5
		c-0.1,0.3-0.3,0.5-0.4,0.8c-0.1,0.2-0.2,0.3-0.3,0.5c-0.2,0.3-0.4,0.5-0.5,0.8c-0.1,0.1-0.2,0.2-0.3,0.4c-0.3,0.4-0.6,0.7-0.9,1
		c0,0,0,0,0,0c0,0,0,0,0,0c-0.3,0.3-0.7,0.6-1,0.9c-0.1,0.1-0.2,0.2-0.4,0.3c-0.3,0.2-0.5,0.4-0.8,0.5c-0.2,0.1-0.3,0.2-0.5,0.3
		c-0.3,0.1-0.5,0.3-0.8,0.4C9.8,15.9,9.6,16,9.4,16c-0.1,0.1-0.3,0.1-0.4,0.2l-1.5-4.6c1.9-0.8,3.4-2.3,4.2-4.2L16.2,9z M10.3,7
		C9.6,8.4,8.4,9.6,7,10.3L5.4,5.4L10.3,7z"/>
	<path class="st0" d="M46.6,36.9L38,28.3c-0.3-0.3-0.7-0.3-1,0c-0.3,0.3-0.3,0.7,0,1l8.3,8.3c-0.1,0.2-0.2,0.4-0.2,0.6
		c-0.1,0.2-0.2,0.4-0.2,0.6c-0.1,0.3-0.3,0.5-0.4,0.8c-0.1,0.2-0.2,0.3-0.3,0.5c-0.2,0.3-0.4,0.5-0.5,0.8c-0.1,0.1-0.2,0.3-0.3,0.4
		c-0.1,0.2-0.3,0.3-0.5,0.5L34.1,33c-0.3-0.3-0.7-0.3-1,0c-0.3,0.3-0.3,0.7,0,1l8.7,8.7c-0.2,0.2-0.3,0.3-0.5,0.5
		c-0.1,0.1-0.3,0.2-0.4,0.3c-0.3,0.2-0.5,0.4-0.8,0.5c-0.2,0.1-0.3,0.2-0.5,0.3c-0.3,0.1-0.5,0.3-0.8,0.4c-0.2,0.1-0.4,0.2-0.6,0.2
		c-0.2,0.1-0.4,0.2-0.6,0.2L30,37.6c-0.3-0.3-0.7-0.3-1,0c-0.3,0.3-0.3,0.7,0,1l8,8c0,0,0,0,0,0c0,0,0,0,0,0c0,0,0,0,0,0l4.6,4.6
		c0.1,0.1,0.3,0.2,0.5,0.2c0.1,0,0.2,0,0.2,0c4.5-1.5,7.6-4.6,9.1-9.1c0.1-0.3,0-0.5-0.2-0.7L46.6,36.9z M42.3,49.9l-3.5-3.5
		c0.1,0,0.2-0.1,0.3-0.1c0.2-0.1,0.4-0.2,0.5-0.2c0.3-0.1,0.6-0.3,0.9-0.5c0.2-0.1,0.3-0.2,0.5-0.3c0.3-0.2,0.6-0.4,0.9-0.6
		c0.1-0.1,0.3-0.2,0.4-0.3c0.8-0.6,1.5-1.3,2.1-2.1c0.1-0.1,0.2-0.3,0.3-0.4c0.2-0.3,0.4-0.6,0.6-0.9c0.1-0.2,0.2-0.3,0.3-0.5
		c0.2-0.3,0.3-0.6,0.5-0.9c0.1-0.2,0.2-0.4,0.2-0.5c0-0.1,0.1-0.2,0.1-0.3l3.5,3.5C48.6,46,46,48.6,42.3,49.9z"/>
	<path class="st0" d="M38.1,24.5c0.4,0.1,0.8,0.1,1.3,0.1c5.1,0,8.8-3.8,10.8-11.1c1.3-4.7,1.4-9.1,1.4-9.3c0-0.2-0.1-0.4-0.2-0.5
		c-0.1-0.1-0.3-0.2-0.5-0.2c-0.4,0-9.2,0.2-15.1,3.8c-3.9,2.3-5.6,5.7-5.2,9.7c-0.1,0-0.1,0.1-0.2,0.2C28.7,18.2,3.5,36.9,3.5,50.8
		c0,0.2,0.1,0.4,0.2,0.5c0.1,0.1,0.3,0.2,0.5,0.2h0c13.8,0,32.5-25.2,33.7-26.7C37.9,24.7,38,24.6,38.1,24.5z M36.4,8.5
		C41,5.7,47.7,5.1,50,5c-0.1,1.5-0.4,4.8-1.3,8.2c-2,7.1-5.5,10.5-10.4,9.9c-0.1-0.3-0.2-0.7-0.4-1.1c-0.4-0.9-1.2-1.8-2.1-2.8
		c-0.3-0.3-0.7-0.7-1.1-1c0.8-1.4,3.7-5.7,10.3-8.5c0.4-0.2,0.5-0.6,0.4-1c-0.2-0.4-0.6-0.5-1-0.4c-6.9,2.9-10,7.2-11,8.9
		c-0.6-0.3-1.1-0.6-1.6-0.7C31.5,13.3,33,10.5,36.4,8.5z M5,50c0.7-9.2,13-20.9,20.5-27.3c0.2-0.1,0.5,0,0.7,0
		c2,0.5,5.6,4.1,6.1,6.1c0,0.2,0.1,0.5,0,0.7C25.9,37,14.2,49.3,5,50z M36.8,23.8C36.8,23.8,36.8,23.8,36.8,23.8
		c-0.1,0.1-1.3,1.8-3.3,4.2c-0.9-2.4-4.1-5.6-6.5-6.5c2.4-2,4.1-3.2,4.2-3.3c0,0,0.1,0,0.1-0.1c0,0,0.1,0,0.2,0
		c0.2,0,0.5,0.1,0.9,0.3c0.7,0.4,1.6,1,2.4,1.8C36.6,22.1,37,23.5,36.8,23.8z"/>
</g>
</svg>
