<?xml version="1.0" encoding="utf-8"?>
<!-- Generator: Adobe Illustrator 24.1.3, SVG Export Plug-In . SVG Version: 6.00 Build 0)  -->
<svg version="1.1" id="Layer_1" xmlns="http://www.w3.org/2000/svg" xmlns:xlink="http://www.w3.org/1999/xlink" x="0px" y="0px"
	 viewBox="0 0 55 55" style="enable-background:new 0 0 55 55;" xml:space="preserve">
<style type="text/css">
	.st0{fill:#3D92D0;}
</style>
<g>
	<path class="st0" d="M6.3,25.7C6.4,25.7,6.4,25.7,6.3,25.7c0.4,0,0.8-0.3,0.8-0.7l1.2-11.9h11.9c0.4,0,0.7-0.3,0.7-0.7
		c0-0.4-0.3-0.7-0.7-0.7h-11L14,5.9v3.6c0,0.4,0.3,0.7,0.7,0.7c0.4,0,0.7-0.3,0.7-0.7V4.6h19.7c0.4,0,0.7-0.3,0.7-0.7
		s-0.3-0.7-0.7-0.7H14.7c-0.2,0-0.4,0.1-0.6,0.3l-7.1,8.5c0,0,0,0.1,0,0.1c0,0,0,0,0,0.1c0,0.1-0.1,0.2-0.1,0.2c0,0,0,0,0,0
		L5.7,24.9C5.7,25.3,5.9,25.6,6.3,25.7z"/>
	<path class="st0" d="M48.1,33.9l0.2,1.9c0,0.4,0.4,0.7,0.7,0.7c0,0,0,0,0.1,0c0.4,0,0.7-0.4,0.7-0.8l-0.2-1.9
		c0-0.4-0.4-0.7-0.8-0.7C48.3,33.2,48,33.5,48.1,33.9z"/>
	<path class="st0" d="M50.2,40.6l-0.1-1.2c0-0.4-0.4-0.7-0.8-0.7c-0.4,0-0.7,0.4-0.7,0.8l0.1,1.2l0.7,6.6c0.1,0.6-0.1,1.2-0.6,1.7
		c-0.4,0.5-1,0.7-1.6,0.7H7.1c-0.6,0-1.2-0.3-1.6-0.7c-0.4-0.5-0.6-1.1-0.6-1.7l1.7-17.4c0-0.4-0.3-0.8-0.7-0.8
		c-0.4,0-0.8,0.3-0.8,0.7L3.5,47.2c-0.1,1,0.2,2,0.9,2.8c0.7,0.8,1.7,1.2,2.7,1.2h40.1c1,0,2-0.4,2.7-1.2c0.7-0.8,1-1.8,0.9-2.8
		L50.2,40.6z"/>
	<path class="st0" d="M24.4,12.4c0,0.4,0.3,0.7,0.7,0.7H46L47.6,29l0.1,1.2c0,0.4,0.4,0.7,0.7,0.7c0,0,0,0,0.1,0
		c0.4,0,0.7-0.4,0.7-0.8L49,28.9l-1.6-16.5c0,0,0,0,0,0c0-0.1,0-0.2-0.1-0.2c0,0,0,0,0-0.1c0,0,0-0.1,0-0.1l-7.1-8.5c0,0,0,0,0,0
		c0,0-0.1-0.1-0.1-0.1c0,0-0.1-0.1-0.1-0.1c0,0-0.1,0-0.1,0c0,0-0.1,0-0.1,0c0,0,0,0,0,0c0,0-0.1,0-0.1,0c-0.1,0-0.1,0-0.1,0
		c0,0-0.1,0-0.1,0.1c0,0-0.1,0-0.1,0c0,0,0,0,0,0c0,0-0.1,0.1-0.1,0.1c0,0-0.1,0.1-0.1,0.1c0,0,0,0.1,0,0.1c0,0,0,0.1,0,0.1
		c0,0,0,0,0,0v7.8H25.1C24.7,11.7,24.4,12,24.4,12.4z M40.3,5.9l4.8,5.8h-4.8V5.9z"/>
	<path class="st0" d="M36.3,31.1c-0.2,0.3-0.2,0.8,0.2,1c0.1,0.1,0.3,0.1,0.4,0.1c0.2,0,0.4-0.1,0.6-0.3c1.6-2.2,2.4-4.8,2.4-7.5V24
		c1.7-0.3,2.9-1.8,2.9-3.6c0-2-1.6-3.6-3.6-3.6c-2,0-3.6,1.6-3.6,3.6c0,1.8,1.3,3.2,2.9,3.6v0.4C38.5,26.8,37.7,29.1,36.3,31.1z
		 M37,20.4c0-1.2,1-2.2,2.2-2.2c1.2,0,2.2,1,2.2,2.2c0,0.9-0.6,1.7-1.5,2v-1.1c0-0.4-0.3-0.7-0.7-0.7c-0.4,0-0.7,0.3-0.7,0.7v1.1
		C37.6,22.2,37,21.4,37,20.4z"/>
	<path class="st0" d="M27.2,37.2c2.5,0,4.9-0.7,7-2.1c0.3-0.2,0.4-0.7,0.2-1c-0.2-0.3-0.7-0.4-1-0.2c-1.8,1.2-4,1.8-6.2,1.8
		c-6.2,0-11.3-5.1-11.3-11.3V24c1.7-0.3,2.9-1.8,2.9-3.6c0-0.5-0.1-1-0.3-1.4c-0.2-0.4-0.6-0.5-1-0.4c-0.4,0.2-0.5,0.6-0.4,1
		c0.1,0.3,0.2,0.6,0.2,0.8c0,0.9-0.6,1.7-1.5,2v-1.1c0-0.4-0.3-0.7-0.7-0.7c-0.4,0-0.7,0.3-0.7,0.7v1.1c-0.8-0.3-1.5-1.1-1.5-2
		c0-1.2,1-2.2,2.2-2.2c0.4,0,0.7-0.3,0.7-0.7c0-0.4-0.3-0.7-0.7-0.7c-2,0-3.6,1.6-3.6,3.6c0,1.8,1.3,3.2,2.9,3.6v0.4
		C14.4,31.5,20.1,37.2,27.2,37.2z"/>
</g>
</svg>
