<?xml version="1.0" encoding="utf-8"?>
<!-- Generator: Adobe Illustrator 24.1.3, SVG Export Plug-In . SVG Version: 6.00 Build 0)  -->
<svg version="1.1" id="Layer_1" xmlns="http://www.w3.org/2000/svg" xmlns:xlink="http://www.w3.org/1999/xlink" x="0px" y="0px"
	 viewBox="0 0 55 55" style="enable-background:new 0 0 55 55;" xml:space="preserve">
<style type="text/css">
	.st0{fill-rule:evenodd;clip-rule:evenodd;fill:none;stroke:#3E91CF;stroke-width:1.6;stroke-miterlimit:10;}
</style>
<g>
	<path class="st0" d="M49.4,47.2c-2.8,0-3.4-1.9-4.7-5.1c-1.3-3.1-12.7-30.7-15-36.4c0,0-0.4-1.3-1.8-1.3c-1.5,0-1.9,1.4-1.9,1.4
		S11.7,39.6,10.1,42.8c-1.6,3.2-2.6,4.1-4.5,4.4c-2.2,0.4-2.3,3.3-2.3,3.3h16.2c0,0,0.8-3.2-2.2-3.2c-3,0-3.3-1-2.2-3.8
		c1.1-2.8,3.2-7.9,3.2-7.9H33c0,0,2.6,6.7,3.3,8.3c0.7,1.6,0.4,3-1.7,3.1c-2,0.1-2.6,2-2.6,3.4c3.9,0,19.6,0,19.6,0
		S52.2,47.2,49.4,47.2z M20.4,30.6l6.1-14l5.1,14H20.4z"/>
</g>
</svg>
