<?xml version="1.0" encoding="utf-8"?>
<!-- Generator: Adobe Illustrator 24.1.3, SVG Export Plug-In . SVG Version: 6.00 Build 0)  -->
<svg version="1.1" id="Layer_1" xmlns="http://www.w3.org/2000/svg" xmlns:xlink="http://www.w3.org/1999/xlink" x="0px" y="0px"
	 viewBox="0 0 55 55" style="enable-background:new 0 0 55 55;" xml:space="preserve">
<style type="text/css">
	.st0{fill:#3D92D0;}
</style>
<g>
	<path class="st0" d="M46.2,38.6c-0.3-0.3-0.7-0.3-1,0c-0.3,0.3-0.3,0.7,0,1l4,4c0.6,0.6,0.9,1.4,0.9,2.2c0,0.8-0.3,1.6-0.9,2.2
		L48,49.1c-1.2,1.2-3.2,1.2-4.4,0L37,42.5c2.4-1.7,4.4-3.8,6-6.2c0.2-0.3,0.1-0.8-0.2-1c-0.3-0.2-0.8-0.1-1,0.2
		c-0.2,0.4-0.5,0.7-0.7,1l-2.9-2.9c2.2-3.1,3.5-6.9,3.5-11c0-10.5-8.5-19-19-19c-5.3,0-10.4,2.2-14,6.2c-0.3,0.3-0.3,0.8,0,1
		c0.3,0.3,0.8,0.3,1,0c3.3-3.6,8-5.7,13-5.7c9.7,0,17.6,7.9,17.6,17.6c0,7.9-5.3,14.9-12.9,17c-0.4,0.1-0.6,0.5-0.5,0.9
		c0.1,0.3,0.4,0.5,0.7,0.5c0.1,0,0.1,0,0.2,0c2.2-0.6,4.2-1.6,5.9-2.8l2.9,2.9c-0.3,0.2-0.7,0.5-1,0.7c-0.2,0.1-0.3,0.3-0.3,0.5
		c0,0.2,0.1,0.4,0.2,0.6l7.3,7.3c0.9,0.9,2,1.3,3.2,1.3c1.2,0,2.4-0.5,3.2-1.3l1.1-1.1c1.8-1.8,1.8-4.7,0-6.4L46.2,38.6z M34.7,37.2
		c0.9-0.8,1.7-1.6,2.5-2.5l2.9,2.9c-0.8,0.9-1.6,1.7-2.5,2.5L34.7,37.2z"/>
	<path class="st0" d="M22.5,41.6c0.4,0,0.7-0.3,0.7-0.7c0-0.4-0.3-0.7-0.7-0.7c-9.7,0-17.6-7.9-17.6-17.6c0-2.9,0.7-5.7,2-8.2
		c0.2-0.4,0.1-0.8-0.3-1c-0.4-0.2-0.8-0.1-1,0.3c-1.4,2.7-2.2,5.8-2.2,8.9C3.5,33,12,41.6,22.5,41.6z"/>
	<path class="st0" d="M29.2,11.8c0.2-0.4,0.1-0.8-0.3-1c-1.9-1.1-4.1-1.6-6.4-1.6c-7.4,0-13.3,6-13.3,13.3c0,7.4,6,13.3,13.3,13.3
		s13.3-6,13.3-13.3c0-3.2-1.2-6.3-3.3-8.8c-0.3-0.3-0.7-0.3-1-0.1c-0.3,0.3-0.3,0.7-0.1,1c1.9,2.2,2.9,4.9,2.9,7.8
		c0,6.6-5.3,11.9-11.9,11.9s-11.9-5.3-11.9-11.9S16,10.7,22.5,10.7c2,0,3.9,0.5,5.7,1.4C28.6,12.3,29,12.1,29.2,11.8z"/>
	<path class="st0" d="M26.9,22c-0.1,0.1-0.2,0.3-0.2,0.5c0,0.2,0.1,0.4,0.2,0.5c0.1,0.1,0.3,0.2,0.5,0.2c0.2,0,0.4-0.1,0.5-0.2
		c0.1-0.1,0.2-0.3,0.2-0.5c0-0.2-0.1-0.4-0.2-0.5C27.6,21.8,27.1,21.8,26.9,22z"/>
	<path class="st0" d="M21.8,22.5c0,0.4,0.3,0.7,0.7,0.7c0.4,0,0.7-0.3,0.7-0.7c0-0.4-0.3-0.7-0.7-0.7C22.1,21.8,21.8,22.1,21.8,22.5
		z"/>
	<path class="st0" d="M17.2,22C17,22.1,17,22.3,17,22.5c0,0.2,0.1,0.4,0.2,0.5c0.1,0.1,0.3,0.2,0.5,0.2c0.2,0,0.4-0.1,0.5-0.2
		c0.1-0.1,0.2-0.3,0.2-0.5c0-0.2-0.1-0.4-0.2-0.5C17.9,21.8,17.4,21.7,17.2,22z"/>
	<path class="st0" d="M9.4,50H4.9V35.3c0-0.4-0.3-0.7-0.7-0.7c-0.4,0-0.7,0.3-0.7,0.7v15.5c0,0.4,0.3,0.7,0.7,0.7h5.2
		c0.4,0,0.7-0.3,0.7-0.7C10.1,50.4,9.8,50,9.4,50z"/>
	<path class="st0" d="M38.2,50H14.3c-0.4,0-0.7,0.3-0.7,0.7c0,0.4,0.3,0.7,0.7,0.7h23.9c0.4,0,0.7-0.3,0.7-0.7
		C38.9,50.4,38.6,50,38.2,50z"/>
	<path class="st0" d="M50.8,8.3c-0.4,0-0.7,0.3-0.7,0.7v29.1c0,0.4,0.3,0.7,0.7,0.7c0.4,0,0.7-0.3,0.7-0.7V9.1
		C51.5,8.7,51.2,8.3,50.8,8.3z"/>
	<path class="st0" d="M35.2,4.9h15.5c0.4,0,0.7-0.3,0.7-0.7c0-0.4-0.3-0.7-0.7-0.7H35.2c-0.4,0-0.7,0.3-0.7,0.7
		C34.5,4.6,34.8,4.9,35.2,4.9z"/>
</g>
</svg>
